<?xml version="1.0" encoding="utf-8"?>
<!-- Generator: Adobe Illustrator 19.0.0, SVG Export Plug-In . SVG Version: 6.00 Build 0)  -->
<svg version="1.1"
	 id="svg2" xmlns:dc="http://purl.org/dc/elements/1.1/" xmlns:cc="http://creativecommons.org/ns#" xmlns:rdf="http://www.w3.org/1999/02/22-rdf-syntax-ns#" xmlns:svg="http://www.w3.org/2000/svg" xmlns:sodipodi="http://sodipodi.sourceforge.net/DTD/sodipodi-0.dtd" xmlns:inkscape="http://www.inkscape.org/namespaces/inkscape" sodipodi:docname="CC-BY-SA_icon blue.svg" inkscape:version="0.91 r13725"
	 xmlns="http://www.w3.org/2000/svg" xmlns:xlink="http://www.w3.org/1999/xlink" x="0px" y="0px" width="88px" height="31px"
	 viewBox="-261 381 88 31" style="enable-background:new -261 381 88 31;" xml:space="preserve">
<style type="text/css">
	.st0{display:none;fill:#7FC2FF;}
	.st1{fill:#FFFFFF;}
</style>
<sodipodi:namedview  inkscape:cy="2.5922183" inkscape:cx="54.657562" inkscape:zoom="8" showgrid="false" guidetolerance="10" gridtolerance="10" objecttolerance="10" pagecolor="#ffffff" bordercolor="#666666" borderopacity="1" id="namedview14" inkscape:current-layer="svg2" inkscape:window-maximized="1" inkscape:window-y="-4" inkscape:window-x="-4" inkscape:window-height="705" inkscape:window-width="1366" inkscape:pageshadow="2" inkscape:pageopacity="0">
	</sodipodi:namedview>
<title  id="title4">Creative Commons “Attribution-Share Alike” license icon</title>
<path id="path6" class="st0" d="M-258.5,381.4l83.1,0.1c1.2,0,2.2-0.2,2.2,2.3l-0.1,27.6h-87.3v-27.7
	C-260.6,382.5-260.5,381.4-258.5,381.4z"/>
<path id="path8" class="st1" d="M-235.7,395.4c0,5.6-4.5,10.1-10,10.1c-5.5,0-10-4.5-10-10.1v0c0-5.6,4.5-10.1,10-10.1
	C-240.2,385.4-235.7,389.9-235.7,395.4C-235.7,395.4-235.7,395.4-235.7,395.4z M-214.5,384.3c4.3,0,7.9,3.5,7.9,7.9
	c0,4.4-3.5,7.9-7.9,7.9c-4.4,0-7.9-3.5-7.9-7.9C-222.4,387.9-218.9,384.3-214.5,384.3z M-185.9,392.1c0,4.3-3.5,7.8-7.8,7.8
	c-4.3,0-7.8-3.5-7.8-7.8v0c0-4.3,3.5-7.8,7.8-7.8C-189.4,384.2-185.9,387.7-185.9,392.1C-185.9,392-185.9,392.1-185.9,392.1z"/>
<path id="path10" d="M-237.6,387.3c2.2,2.2,3.3,5,3.3,8.2s-1.1,5.9-3.3,8.1c-2.3,2.3-5,3.4-8.2,3.4c-3.1,0-5.8-1.1-8.1-3.4
	c-2.3-2.3-3.4-5-3.4-8.1c0-3.2,1.1-5.9,3.4-8.2c2.2-2.2,4.9-3.3,8.1-3.3C-242.5,383.9-239.8,385-237.6,387.3z M-252.3,388.8
	c-1.9,1.9-2.8,4.1-2.8,6.7c0,2.6,0.9,4.8,2.8,6.6c1.9,1.9,4.1,2.8,6.6,2.8c2.6,0,4.8-0.9,6.7-2.8c1.8-1.8,2.7-4,2.7-6.6
	c0-2.6-0.9-4.9-2.7-6.7c-1.8-1.8-4-2.8-6.6-2.8S-250.5,386.9-252.3,388.8z M-247.3,394.3c-0.3-0.6-0.7-0.9-1.3-0.9
	c-1,0-1.5,0.7-1.5,2.1c0,1.4,0.5,2.1,1.5,2.1c0.7,0,1.1-0.3,1.4-1l1.4,0.8c-0.7,1.2-1.7,1.8-3,1.8c-1,0-1.9-0.3-2.5-1
	c-0.6-0.6-0.9-1.5-0.9-2.6c0-1.1,0.3-2,1-2.6c0.6-0.6,1.4-1,2.4-1c1.4,0,2.4,0.6,3,1.7C-245.8,393.5-247.3,394.3-247.3,394.3z
	 M-240.7,394.3c-0.3-0.6-0.7-0.9-1.3-0.9c-1,0-1.5,0.7-1.5,2.1c0,1.4,0.5,2.1,1.5,2.1c0.7,0,1.1-0.3,1.4-1l1.4,0.8
	c-0.7,1.2-1.7,1.8-3,1.8c-1,0-1.9-0.3-2.5-1c-0.6-0.6-0.9-1.5-0.9-2.6c0-1.1,0.3-2,0.9-2.6c0.6-0.6,1.4-1,2.4-1c1.4,0,2.4,0.6,3,1.7
	C-239.2,393.5-240.7,394.3-240.7,394.3z M-174.6,381h-84.7c-0.9,0-1.6,0.7-1.6,1.7v29c0,0.2,0.2,0.4,0.4,0.4h87.3
	c0.2,0,0.4-0.2,0.4-0.4v-29C-173,381.7-173.7,381-174.6,381z M-259.4,381.7h84.7c0.5,0,0.9,0.4,0.9,0.9v20.1h-60.5
	c-2.2,4-6.5,6.8-11.4,6.8c-4.9,0-9.2-2.7-11.4-6.8h-3.2v-20.1C-260.3,382.2-259.9,381.7-259.4,381.7z M-193.7,383.5
	c-2.4,0-4.3,0.8-6,2.5c-1.7,1.7-2.5,3.7-2.5,6.1c0,2.3,0.8,4.4,2.5,6c1.7,1.7,3.7,2.5,6,2.5c2.3,0,4.4-0.8,6.1-2.5
	c1.6-1.6,2.4-3.6,2.4-6c0-2.4-0.8-4.4-2.5-6.1C-189.3,384.3-191.3,383.5-193.7,383.5z M-193.7,385c1.9,0,3.6,0.7,4.9,2.1
	c1.4,1.4,2,3,2,5c0,2-0.7,3.6-2,4.9c-1.4,1.4-3.1,2.1-5,2.1c-1.9,0-3.5-0.7-4.9-2.1c-1.4-1.4-2.1-3-2.1-4.9s0.7-3.6,2.1-5
	C-197.3,385.7-195.6,385-193.7,385z M-197.5,390.8c0.3-2.2,1.8-3.3,3.7-3.3c2.7,0,4.4,2,4.4,4.6c0,2.6-1.8,4.6-4.4,4.6
	c-1.8,0-3.5-1.1-3.8-3.3h2.1c0.1,1.2,0.8,1.6,1.9,1.6c1.2,0,2-1.1,2-2.9c0-1.8-0.7-2.8-2-2.8c-0.9,0-1.7,0.3-1.9,1.5l0.6,0l-1.7,1.7
	l-1.7-1.7L-197.5,390.8L-197.5,390.8z M-212.3,389.9c0-0.3-0.2-0.6-0.6-0.6h-3.5c-0.3,0-0.6,0.2-0.6,0.6v3.5h1v4.1h2.6v-4.1h1
	C-212.3,393.4-212.3,389.9-212.3,389.9z M-214.5,386.5c0.7,0,1.2,0.5,1.2,1.2c0,0.7-0.5,1.2-1.2,1.2c-0.7,0-1.2-0.5-1.2-1.2
	C-215.7,387.1-215.2,386.5-214.5,386.5z M-214.6,383.5c-2.4,0-4.3,0.8-6,2.5c-1.7,1.7-2.5,3.7-2.5,6.1c0,2.3,0.8,4.4,2.5,6
	c1.7,1.7,3.7,2.5,6,2.5c2.3,0,4.4-0.8,6.1-2.5c1.6-1.6,2.4-3.6,2.4-6s-0.8-4.4-2.5-6.1C-210.2,384.3-212.2,383.5-214.6,383.5z
	 M-214.5,385c1.9,0,3.6,0.7,4.9,2.1c1.4,1.4,2,3,2,5c0,2-0.7,3.6-2,4.9c-1.4,1.4-3.1,2.1-5,2.1c-1.9,0-3.5-0.7-4.9-2.1
	c-1.4-1.4-2.1-3-2.1-4.9c0-1.9,0.7-3.6,2.1-5C-218.1,385.7-216.5,385-214.5,385z"/>
<path id="path12" class="st1" d="M-191.7,405.2l1.8,4.9h-1.1l-0.4-1.1h-1.8l-0.4,1.1h-1.1l1.8-4.9
	C-192.8,405.2-191.7,405.2-191.7,405.2z M-191.7,408.2l-0.6-1.8h0l-0.6,1.8H-191.7z M-197.7,408.9c0.1,0.1,0.1,0.2,0.2,0.3
	c0.1,0.1,0.2,0.1,0.3,0.2c0.1,0,0.3,0.1,0.4,0.1c0.1,0,0.2,0,0.3,0c0.1,0,0.2,0,0.3-0.1c0.1,0,0.2-0.1,0.2-0.2
	c0.1-0.1,0.1-0.2,0.1-0.3c0-0.1,0-0.2-0.1-0.3c-0.1-0.1-0.2-0.1-0.3-0.2c-0.1-0.1-0.3-0.1-0.5-0.1c-0.2,0-0.3-0.1-0.5-0.1
	c-0.2,0-0.4-0.1-0.5-0.2c-0.2-0.1-0.3-0.2-0.5-0.3c-0.1-0.1-0.2-0.2-0.3-0.4c-0.1-0.2-0.1-0.3-0.1-0.6c0-0.3,0.1-0.5,0.2-0.7
	c0.1-0.2,0.2-0.3,0.4-0.5c0.2-0.1,0.4-0.2,0.6-0.3c0.2-0.1,0.4-0.1,0.7-0.1c0.3,0,0.5,0,0.7,0.1c0.2,0.1,0.4,0.1,0.6,0.3
	c0.2,0.1,0.3,0.3,0.4,0.5c0.1,0.2,0.2,0.4,0.2,0.7h-1c0-0.1,0-0.3-0.1-0.4c-0.1-0.1-0.1-0.2-0.2-0.2c-0.1-0.1-0.2-0.1-0.3-0.1
	c-0.1,0-0.2,0-0.4,0c-0.1,0-0.2,0-0.3,0c-0.1,0-0.2,0.1-0.2,0.1c-0.1,0-0.1,0.1-0.2,0.2s-0.1,0.2-0.1,0.3c0,0.1,0,0.2,0.1,0.2
	c0,0.1,0.1,0.1,0.2,0.2c0.1,0,0.3,0.1,0.4,0.2c0.2,0,0.4,0.1,0.7,0.2c0.1,0,0.2,0.1,0.4,0.1c0.2,0,0.3,0.1,0.5,0.2
	c0.2,0.1,0.3,0.2,0.4,0.4c0.1,0.2,0.2,0.4,0.2,0.7c0,0.2,0,0.4-0.1,0.6c-0.1,0.2-0.2,0.4-0.4,0.5c-0.2,0.1-0.4,0.2-0.6,0.3
	c-0.3,0.1-0.5,0.1-0.9,0.1c-0.3,0-0.5,0-0.8-0.1c-0.3-0.1-0.5-0.2-0.7-0.3c-0.2-0.1-0.3-0.3-0.5-0.5c-0.1-0.2-0.2-0.5-0.2-0.8h1
	C-197.8,408.6-197.8,408.7-197.7,408.9z M-215,405.2h1.2l1.1,1.9l1.1-1.9h1.2l-1.8,3v1.9h-1.1v-1.9
	C-213.2,408.2-215,405.2-215,405.2z M-217,405.2c0.2,0,0.4,0,0.6,0.1c0.2,0,0.4,0.1,0.5,0.2c0.1,0.1,0.2,0.2,0.3,0.4
	c0.1,0.2,0.1,0.3,0.1,0.6c0,0.2-0.1,0.5-0.2,0.6c-0.1,0.2-0.3,0.3-0.5,0.4c0.3,0.1,0.5,0.2,0.7,0.5c0.1,0.2,0.2,0.5,0.2,0.8
	c0,0.2,0,0.5-0.1,0.6c-0.1,0.2-0.2,0.3-0.4,0.4c-0.2,0.1-0.3,0.2-0.6,0.3c-0.2,0.1-0.4,0.1-0.6,0.1h-2.4v-4.9L-217,405.2L-217,405.2
	z M-217.1,407.1c0.2,0,0.3,0,0.5-0.1c0.1-0.1,0.2-0.2,0.2-0.4c0-0.1,0-0.2-0.1-0.3c0-0.1-0.1-0.1-0.2-0.2c-0.1,0-0.1-0.1-0.2-0.1
	c-0.1,0-0.2,0-0.3,0h-1v1.1L-217.1,407.1L-217.1,407.1z M-217.1,409.2c0.1,0,0.2,0,0.3,0c0.1,0,0.2-0.1,0.3-0.1
	c0.1,0,0.1-0.1,0.2-0.2c0-0.1,0.1-0.2,0.1-0.3c0-0.3-0.1-0.4-0.2-0.5c-0.1-0.1-0.3-0.2-0.6-0.2h-1.2v1.3L-217.1,409.2L-217.1,409.2z
	"/>
</svg>
